name pl10_filtered_grf.mot
datacolumns 37
datarows 5
range 0.002500 0.004500
endheader
time	1_ground_force_vx	1_ground_force_vy	1_ground_force_vz	1_ground_force_px	1_ground_force_py	1_ground_force_pz	1_ground_torque_x	1_ground_torque_y	1_ground_torque_z	2_ground_force_vx	2_ground_force_vy	2_ground_force_vz	2_ground_force_px	2_ground_force_py	2_ground_force_pz	2_ground_torque_x	2_ground_torque_y	2_ground_torque_z	3_ground_force_vx	3_ground_force_vy	3_ground_force_vz	3_ground_force_px	3_ground_force_py	3_ground_force_pz	3_ground_torque_x	3_ground_torque_y	3_ground_torque_z	4_ground_force_vx	4_ground_force_vy	4_ground_force_vz	4_ground_force_px	4_ground_force_py	4_ground_force_pz	4_ground_torque_x	4_ground_torque_y	4_ground_torque_z
            0.002500	            0.000000	           -0.000000	           -0.000000	            0.168179	            0.000000	            0.038553	           -0.000000	           -0.000000	            0.000000	            0.000000	           -0.000000	           -0.000000	           -0.185506	            0.000000	            0.247637	           -0.000000	            0.000000	           -0.000000	          -61.366991	          385.262276	           89.032206	            0.413614	            1.262064	            1.874209	            2.617199	          -16.430789	           -3.797074	           62.824729	          519.849956	           82.243016	           -0.354174	            1.255333	            1.901349	            2.888022	           23.897247	            3.780671
            0.003000	            0.000000	           -0.000000	           -0.000000	            0.168179	            0.000000	            0.038553	           -0.000000	           -0.000000	            0.000000	            0.000000	           -0.000000	           -0.000000	           -0.185506	            0.000000	            0.247637	           -0.000000	            0.000000	           -0.000000	          -61.520489	          386.044868	           89.083684	            0.413614	            1.262064	            1.874209	            2.624897	          -16.471392	           -3.800937	           62.939800	          520.307330	           82.190889	           -0.354174	            1.255333	            1.901349	            2.893394	           23.918949	            3.778382
            0.003500	            0.000000	           -0.000000	           -0.000000	            0.168179	            0.000000	            0.038553	           -0.000000	           -0.000000	            0.000000	            0.000000	           -0.000000	           -0.000000	           -0.185506	            0.000000	            0.247637	           -0.000000	            0.000000	           -0.000000	          -61.670037	          386.841749	           89.133822	            0.413605	            1.262061	            1.874213	            2.632453	          -16.512764	           -3.804775	           63.053256	          520.778704	           82.139057	           -0.354177	            1.255332	            1.901348	            2.898724	           23.941565	            3.776148
            0.004000	            0.000000	           -0.000000	           -0.000000	            0.168179	            0.000000	            0.038553	           -0.000000	           -0.000000	            0.000000	            0.000000	           -0.000000	           -0.000000	           -0.185506	            0.000000	            0.247637	           -0.000000	            0.000000	           -0.000000	          -61.815334	          387.652306	           89.182579	            0.413596	            1.262058	            1.874216	            2.639854	          -16.554880	           -3.808585	           63.164995	          521.264012	           82.087517	           -0.354180	            1.255331	            1.901347	            2.904009	           23.965098	            3.773971
            0.004500	            0.000000	           -0.000000	           -0.000000	            0.168179	            0.000000	            0.038553	           -0.000000	           -0.000000	            0.000000	            0.000000	           -0.000000	           -0.000000	           -0.185506	            0.000000	            0.247637	           -0.000000	            0.000000	           -0.000000	          -61.956095	          388.475915	           89.229923	            0.413587	            1.262055	            1.874220	            2.647087	          -16.597713	           -3.812367	           63.274920	          521.763179	           82.036254	           -0.354182	            1.255329	            1.901347	            2.909245	           23.989550	            3.771851
